<mxfile host="app.diagrams.net" agent="Mozilla/5.0 (Windows NT 10.0; Win64; x64) AppleWebKit/537.36 (KHTML, like Gecko) Chrome/137.0.0.0 Safari/537.36" version="27.1.6">
  <diagram name="Page-1" id="XbkOB0DZmmcXqt5XT6gN">
    <mxGraphModel dx="980" dy="2520" grid="1" gridSize="10" guides="1" tooltips="1" connect="1" arrows="1" fold="1" page="1" pageScale="1" pageWidth="850" pageHeight="1100" math="0" shadow="0">
      <root>
        <mxCell id="0" />
        <mxCell id="1" parent="0" />
        <mxCell id="O4-MJlKBHPY2b6SIjmpv-5" value="&lt;ol&gt;&lt;li data-end=&quot;232&quot; data-start=&quot;222&quot;&gt;&lt;p data-end=&quot;232&quot; data-start=&quot;225&quot;&gt;Start&lt;/p&gt;&lt;/li&gt;&lt;li data-end=&quot;270&quot; data-start=&quot;233&quot;&gt;&lt;p data-end=&quot;270&quot; data-start=&quot;236&quot;&gt;Select a secret one-word message: Hello&lt;/p&gt;&lt;/li&gt;&lt;li data-end=&quot;309&quot; data-start=&quot;271&quot;&gt;&lt;p data-end=&quot;309&quot; data-start=&quot;274&quot;&gt;Convert message to ASCII → Binary&lt;/p&gt;&lt;/li&gt;&lt;li data-end=&quot;352&quot; data-start=&quot;310&quot;&gt;&lt;p data-end=&quot;352&quot; data-start=&quot;313&quot;&gt;Select a key (same length as message): World&lt;/p&gt;&lt;/li&gt;&lt;li data-end=&quot;387&quot; data-start=&quot;353&quot;&gt;&lt;p data-end=&quot;387&quot; data-start=&quot;356&quot;&gt;Convert key to ASCII → Binary&lt;/p&gt;&lt;/li&gt;&lt;li data-end=&quot;445&quot; data-start=&quot;388&quot;&gt;&lt;p data-end=&quot;445&quot; data-start=&quot;391&quot;&gt;Apply XOR between message and key → Encrypted binary&lt;/p&gt;&lt;/li&gt;&lt;li data-end=&quot;508&quot; data-start=&quot;446&quot;&gt;&lt;p data-end=&quot;508&quot; data-start=&quot;449&quot;&gt;Convert encrypted binary → Hexadecimal → Shareable format&lt;/p&gt;&lt;/li&gt;&lt;li data-end=&quot;546&quot; data-start=&quot;509&quot;&gt;&lt;p data-end=&quot;546&quot; data-start=&quot;512&quot;&gt;Decryption: Convert Hex → Binary&lt;/p&gt;&lt;/li&gt;&lt;li data-end=&quot;600&quot; data-start=&quot;547&quot;&gt;&lt;p data-end=&quot;600&quot; data-start=&quot;550&quot;&gt;XOR encrypted binary with key → Decrypted binary&lt;/p&gt;&lt;/li&gt;&lt;li data-end=&quot;676&quot; data-start=&quot;601&quot;&gt;&lt;p data-end=&quot;676&quot; data-start=&quot;605&quot;&gt;Convert decrypted binary → ASCII (verify it matches original message)&lt;/p&gt;&lt;/li&gt;&lt;li data-end=&quot;684&quot; data-start=&quot;677&quot;&gt;&lt;p data-end=&quot;684&quot; data-start=&quot;681&quot;&gt;End&lt;/p&gt;&lt;/li&gt;&lt;/ol&gt;" style="text;strokeColor=none;fillColor=none;html=1;whiteSpace=wrap;verticalAlign=middle;overflow=hidden;" vertex="1" parent="1">
          <mxGeometry x="20" y="-1050" width="430" height="370" as="geometry" />
        </mxCell>
        <mxCell id="O4-MJlKBHPY2b6SIjmpv-19" style="edgeStyle=orthogonalEdgeStyle;rounded=0;orthogonalLoop=1;jettySize=auto;html=1;exitX=0.5;exitY=1;exitDx=0;exitDy=0;entryX=0.5;entryY=0;entryDx=0;entryDy=0;" edge="1" parent="1" source="O4-MJlKBHPY2b6SIjmpv-8" target="O4-MJlKBHPY2b6SIjmpv-9">
          <mxGeometry relative="1" as="geometry" />
        </mxCell>
        <mxCell id="O4-MJlKBHPY2b6SIjmpv-8" value="hello to Binary:&lt;br&gt;01101000 01100101 01101100 01101100 01101111" style="rounded=1;whiteSpace=wrap;html=1;" vertex="1" parent="1">
          <mxGeometry x="460" y="-1000" width="280" height="80" as="geometry" />
        </mxCell>
        <mxCell id="O4-MJlKBHPY2b6SIjmpv-20" style="edgeStyle=orthogonalEdgeStyle;rounded=0;orthogonalLoop=1;jettySize=auto;html=1;exitX=0.5;exitY=1;exitDx=0;exitDy=0;entryX=0.5;entryY=0;entryDx=0;entryDy=0;" edge="1" parent="1" source="O4-MJlKBHPY2b6SIjmpv-9" target="O4-MJlKBHPY2b6SIjmpv-12">
          <mxGeometry relative="1" as="geometry" />
        </mxCell>
        <mxCell id="O4-MJlKBHPY2b6SIjmpv-9" value="world to Binary:&lt;br&gt;01110111 01101111 01110010 01101100 01100100" style="rounded=1;whiteSpace=wrap;html=1;" vertex="1" parent="1">
          <mxGeometry x="460" y="-905" width="280" height="80" as="geometry" />
        </mxCell>
        <mxCell id="O4-MJlKBHPY2b6SIjmpv-12" value="XOR:&lt;br&gt;00011111 00001010 00011110 00000000 00001011" style="rounded=1;whiteSpace=wrap;html=1;" vertex="1" parent="1">
          <mxGeometry x="460" y="-810" width="280" height="80" as="geometry" />
        </mxCell>
        <mxCell id="O4-MJlKBHPY2b6SIjmpv-22" style="edgeStyle=orthogonalEdgeStyle;rounded=0;orthogonalLoop=1;jettySize=auto;html=1;exitX=0.5;exitY=1;exitDx=0;exitDy=0;entryX=0.5;entryY=0;entryDx=0;entryDy=0;" edge="1" parent="1" source="O4-MJlKBHPY2b6SIjmpv-13" target="O4-MJlKBHPY2b6SIjmpv-14">
          <mxGeometry relative="1" as="geometry" />
        </mxCell>
        <mxCell id="O4-MJlKBHPY2b6SIjmpv-13" value="To Hex:&lt;div&gt;1f 0a 1e 00 0b&lt;/div&gt;" style="rounded=1;whiteSpace=wrap;html=1;" vertex="1" parent="1">
          <mxGeometry x="460" y="-710" width="280" height="70" as="geometry" />
        </mxCell>
        <mxCell id="O4-MJlKBHPY2b6SIjmpv-23" style="edgeStyle=orthogonalEdgeStyle;rounded=0;orthogonalLoop=1;jettySize=auto;html=1;exitX=0.5;exitY=1;exitDx=0;exitDy=0;entryX=0.5;entryY=0;entryDx=0;entryDy=0;" edge="1" parent="1" source="O4-MJlKBHPY2b6SIjmpv-14" target="O4-MJlKBHPY2b6SIjmpv-16">
          <mxGeometry relative="1" as="geometry" />
        </mxCell>
        <mxCell id="O4-MJlKBHPY2b6SIjmpv-14" value="Hex to Binary:&lt;br&gt;00011111 00001010 00011110 00000000 00001011" style="rounded=1;whiteSpace=wrap;html=1;" vertex="1" parent="1">
          <mxGeometry x="460" y="-610" width="280" height="70" as="geometry" />
        </mxCell>
        <mxCell id="O4-MJlKBHPY2b6SIjmpv-24" style="edgeStyle=orthogonalEdgeStyle;rounded=0;orthogonalLoop=1;jettySize=auto;html=1;exitX=0.5;exitY=1;exitDx=0;exitDy=0;entryX=0.5;entryY=0;entryDx=0;entryDy=0;" edge="1" parent="1" source="O4-MJlKBHPY2b6SIjmpv-16" target="O4-MJlKBHPY2b6SIjmpv-17">
          <mxGeometry relative="1" as="geometry" />
        </mxCell>
        <mxCell id="O4-MJlKBHPY2b6SIjmpv-16" value="XOR with Key(world):&lt;br&gt;01110111 01101111 01110010 01101100 01100100" style="rounded=1;whiteSpace=wrap;html=1;" vertex="1" parent="1">
          <mxGeometry x="460" y="-520" width="280" height="70" as="geometry" />
        </mxCell>
        <mxCell id="O4-MJlKBHPY2b6SIjmpv-17" value="Result of XOR:&lt;br&gt;01101000 01100101 01101100 01101100 01101111" style="rounded=1;whiteSpace=wrap;html=1;" vertex="1" parent="1">
          <mxGeometry x="460" y="-430" width="280" height="80" as="geometry" />
        </mxCell>
        <mxCell id="O4-MJlKBHPY2b6SIjmpv-18" value="Binary to ASCII:&lt;div&gt;world&lt;/div&gt;" style="rounded=1;whiteSpace=wrap;html=1;" vertex="1" parent="1">
          <mxGeometry x="460" y="-330" width="280" height="80" as="geometry" />
        </mxCell>
        <mxCell id="O4-MJlKBHPY2b6SIjmpv-21" style="edgeStyle=orthogonalEdgeStyle;rounded=0;orthogonalLoop=1;jettySize=auto;html=1;exitX=0.5;exitY=1;exitDx=0;exitDy=0;entryX=0.509;entryY=0.137;entryDx=0;entryDy=0;entryPerimeter=0;" edge="1" parent="1" source="O4-MJlKBHPY2b6SIjmpv-12" target="O4-MJlKBHPY2b6SIjmpv-13">
          <mxGeometry relative="1" as="geometry" />
        </mxCell>
        <mxCell id="O4-MJlKBHPY2b6SIjmpv-25" style="edgeStyle=orthogonalEdgeStyle;rounded=0;orthogonalLoop=1;jettySize=auto;html=1;exitX=0.5;exitY=1;exitDx=0;exitDy=0;entryX=0.515;entryY=0.12;entryDx=0;entryDy=0;entryPerimeter=0;" edge="1" parent="1" source="O4-MJlKBHPY2b6SIjmpv-17" target="O4-MJlKBHPY2b6SIjmpv-18">
          <mxGeometry relative="1" as="geometry" />
        </mxCell>
      </root>
    </mxGraphModel>
  </diagram>
</mxfile>
